<?xml version="1.0" encoding="UTF-8"?><svg id="Lager_2" xmlns="http://www.w3.org/2000/svg" viewBox="0 0 232.85 57.33"><defs><style>.cls-1{fill:#fff;}</style></defs><g id="Lager_1-2"><g><path class="cls-1" d="M98.33,13.77l1.91-2.29c1.32,1.09,2.7,1.79,4.38,1.79,1.32,0,2.12-.52,2.12-1.38v-.04c0-.82-.5-1.24-2.96-1.87-2.96-.75-4.86-1.57-4.86-4.48v-.04c0-2.67,2.13-4.43,5.13-4.43,2.14,0,3.97,.68,5.46,1.87l-1.68,2.43c-1.3-.9-2.58-1.45-3.82-1.45s-1.88,.57-1.88,1.28v.04c0,.96,.63,1.28,3.16,1.93,2.98,.78,4.66,1.85,4.66,4.41v.04c0,2.92-2.22,4.54-5.39,4.54-2.22,0-4.47-.77-6.23-2.34"/><polygon class="cls-1" points="121.64 1.23 117.8 11.57 113.96 1.23 110.39 1.23 116.33 16.01 119.18 16.01 125.12 1.23 121.64 1.23"/><polygon class="cls-1" points="126.86 1.23 126.86 15.91 138.04 15.91 138.04 13.03 130.07 13.03 130.07 9.95 137 9.95 137 7.07 130.07 7.07 130.07 4.1 137.94 4.1 137.94 1.23 126.86 1.23"/><polygon class="cls-1" points="151.13 1.23 151.13 10.27 144.25 1.23 141.27 1.23 141.27 15.91 144.46 15.91 144.46 6.57 151.57 15.91 154.32 15.91 154.32 1.23 151.13 1.23"/><path class="cls-1" d="M156.93,13.77l1.91-2.29c1.32,1.09,2.7,1.79,4.38,1.79,1.32,0,2.12-.52,2.12-1.38v-.04c0-.82-.5-1.24-2.96-1.87-2.96-.75-4.86-1.57-4.86-4.48v-.04c0-2.67,2.13-4.43,5.14-4.43,2.13,0,3.96,.68,5.45,1.87l-1.68,2.43c-1.3-.9-2.58-1.45-3.82-1.45s-1.89,.57-1.89,1.28v.04c0,.96,.63,1.28,3.17,1.93,2.98,.78,4.66,1.85,4.66,4.41v.04c0,2.92-2.22,4.54-5.39,4.54-2.22,0-4.47-.77-6.23-2.34"/><polygon class="cls-1" points="180.63 1.23 174.68 7.64 174.68 1.23 171.45 1.23 171.45 15.91 174.68 15.91 174.68 11.42 176.38 9.65 180.92 15.91 184.81 15.91 178.56 7.45 184.54 1.23 180.63 1.23"/><rect class="cls-1" x="99.48" y="21.8" width="3.22" height="14.69"/><polygon class="cls-1" points="106.41 21.81 109.4 21.81 116.27 30.85 116.27 21.81 119.46 21.81 119.46 36.49 116.71 36.49 109.6 27.16 109.6 36.49 106.41 36.49 106.41 21.81"/><path class="cls-1" d="M122.02,34.35l1.91-2.28c1.32,1.09,2.7,1.78,4.38,1.78,1.32,0,2.12-.52,2.12-1.38v-.04c0-.82-.5-1.23-2.96-1.86-2.96-.76-4.86-1.58-4.86-4.49v-.04c0-2.66,2.13-4.42,5.13-4.42,2.14,0,3.97,.67,5.46,1.86l-1.68,2.43c-1.3-.9-2.58-1.45-3.82-1.45s-1.88,.57-1.88,1.28v.04c0,.97,.63,1.28,3.16,1.93,2.98,.78,4.66,1.85,4.66,4.41v.04c0,2.92-2.22,4.55-5.39,4.55-2.22,0-4.47-.78-6.23-2.35"/><path class="cls-1" d="M144.12,30.34l-1.95-4.76-1.95,4.76h3.9Zm-3.4-8.64h2.98l6.29,14.79h-3.38l-1.34-3.29h-6.21l-1.34,3.29h-3.29l6.29-14.79Z"/><polygon class="cls-1" points="151.74 21.81 155.22 21.81 159.08 28.02 162.94 21.81 166.42 21.81 166.42 36.49 163.21 36.49 163.21 26.9 159.08 33.17 159 33.17 154.91 26.96 154.91 36.49 151.74 36.49 151.74 21.81"/><polygon class="cls-1" points="169.84 21.81 173.07 21.81 173.07 33.55 180.39 33.55 180.39 36.49 169.84 36.49 169.84 21.81"/><rect class="cls-1" x="182.68" y="21.8" width="3.23" height="14.69"/><polygon class="cls-1" points="189.61 21.81 192.59 21.81 199.47 30.85 199.47 21.81 202.66 21.81 202.66 36.49 199.91 36.49 192.8 27.16 192.8 36.49 189.61 36.49 189.61 21.81"/><path class="cls-1" d="M205.16,29.19v-.04c0-4.17,3.25-7.59,7.69-7.59,2.65,0,4.24,.72,5.77,2.01l-2.04,2.45c-1.13-.94-2.14-1.48-3.84-1.48-2.35,0-4.21,2.07-4.21,4.57v.04c0,2.68,1.85,4.66,4.44,4.66,1.17,0,2.22-.29,3.04-.88v-2.1h-3.25v-2.79h6.38v6.38c-1.51,1.28-3.59,2.33-6.27,2.33-4.57,0-7.72-3.21-7.72-7.55"/><path class="cls-1" d="M221.23,34.35l1.91-2.28c1.32,1.09,2.71,1.78,4.38,1.78,1.32,0,2.12-.52,2.12-1.38v-.04c0-.82-.5-1.23-2.96-1.86-2.96-.76-4.86-1.58-4.86-4.49v-.04c0-2.66,2.13-4.42,5.13-4.42,2.14,0,3.97,.67,5.45,1.86l-1.67,2.43c-1.3-.9-2.58-1.45-3.82-1.45s-1.88,.57-1.88,1.28v.04c0,.97,.63,1.28,3.16,1.93,2.98,.78,4.66,1.85,4.66,4.41v.04c0,2.92-2.22,4.55-5.39,4.55-2.22,0-4.47-.78-6.23-2.35"/><polygon class="cls-1" points="108.69 42.39 102.73 48.81 102.73 42.39 99.5 42.39 99.5 57.07 102.73 57.07 102.73 52.59 104.43 50.82 108.98 57.07 112.87 57.07 106.61 48.62 112.59 42.39 108.69 42.39"/><path class="cls-1" d="M124.78,49.78v-.04c0-2.52-1.85-4.61-4.44-4.61s-4.41,2.05-4.41,4.57v.04c0,2.52,1.85,4.61,4.44,4.61s4.41-2.05,4.41-4.57m-12.23,0v-.04c0-4.17,3.29-7.59,7.82-7.59s7.78,3.38,7.78,7.55v.04c0,4.17-3.29,7.59-7.82,7.59s-7.78-3.38-7.78-7.55"/><polygon class="cls-1" points="140.47 42.39 140.47 51.43 133.59 42.39 130.61 42.39 130.61 57.07 133.8 57.07 133.8 47.74 140.91 57.07 143.66 57.07 143.66 42.39 140.47 42.39"/><polygon class="cls-1" points="145.9 42.39 145.9 45.37 150.37 45.37 150.37 57.07 153.6 57.07 153.6 45.37 158.07 45.37 158.07 42.39 145.9 42.39"/><path class="cls-1" d="M166.81,49.52c1.57,0,2.47-.84,2.47-2.07v-.04c0-1.38-.96-2.1-2.54-2.1h-3.21v4.21h3.28Zm-6.5-7.13h6.71c1.87,0,3.32,.52,4.28,1.49,.82,.82,1.26,1.97,1.26,3.35v.04c0,2.37-1.28,3.86-3.15,4.55l3.59,5.24h-3.78l-3.14-4.7h-2.54v4.7h-3.23v-14.68Z"/><path class="cls-1" d="M186.89,49.78v-.04c0-2.52-1.85-4.61-4.45-4.61s-4.4,2.05-4.4,4.57v.04c0,2.52,1.85,4.61,4.44,4.61s4.41-2.05,4.41-4.57m-12.23,0v-.04c0-4.17,3.29-7.59,7.82-7.59s7.78,3.38,7.78,7.55v.04c0,4.17-3.29,7.59-7.83,7.59s-7.78-3.38-7.78-7.55"/><polygon class="cls-1" points="192.88 42.39 192.88 57.07 203.43 57.07 203.43 54.14 196.11 54.14 196.11 42.39 192.88 42.39"/><polygon class="cls-1" points="205.24 42.39 205.24 57.07 215.79 57.07 215.79 54.14 208.46 54.14 208.46 42.39 205.24 42.39"/><polygon class="cls-1" points="41.97 46.7 37.77 51.23 37.77 46.7 35.5 46.7 35.5 57.05 37.77 57.05 37.77 53.89 38.97 52.65 42.18 57.05 44.91 57.05 40.51 51.09 44.72 46.7 41.97 46.7"/><path class="cls-1" d="M52.92,51.91v-.03c0-1.77-1.3-3.25-3.14-3.25s-3.1,1.45-3.1,3.22v.03c0,1.77,1.3,3.25,3.13,3.25s3.11-1.45,3.11-3.22m-8.62,0v-.03c0-2.94,2.32-5.35,5.51-5.35s5.49,2.38,5.49,5.32v.03c0,2.95-2.33,5.35-5.52,5.35s-5.48-2.38-5.48-5.32"/><polygon class="cls-1" points="63.46 46.7 63.46 53.07 58.61 46.7 56.51 46.7 56.51 57.05 58.76 57.05 58.76 50.47 63.77 57.05 65.71 57.05 65.71 46.7 63.46 46.7"/><polygon class="cls-1" points="66.77 46.7 66.77 48.8 69.92 48.8 69.92 57.05 72.2 57.05 72.2 48.8 75.35 48.8 75.35 46.7 66.77 46.7"/><path class="cls-1" d="M83.69,51.91v-.03c0-1.77-1.3-3.25-3.13-3.25s-3.11,1.45-3.11,3.22v.03c0,1.77,1.3,3.25,3.13,3.25s3.11-1.45,3.11-3.22m-8.62,0v-.03c0-2.94,2.32-5.35,5.51-5.35s5.49,2.38,5.49,5.32v.03c0,2.95-2.32,5.35-5.51,5.35s-5.49-2.38-5.49-5.32"/><path class="cls-1" d="M64.85,34.1c-6.65,0-12.06-5.41-12.06-12.05s5.41-12.06,12.06-12.06,12.06,5.4,12.06,12.06-5.41,12.05-12.06,12.05m-42.8,0c-6.65,0-12.05-5.41-12.05-12.05s5.4-12.06,12.05-12.06,12.06,5.4,12.06,12.06-5.41,12.05-12.06,12.05M64.85,0c-10.33,0-19.02,7.14-21.4,16.74C41.06,7.14,32.37,0,22.04,0,9.89,0,0,9.89,0,22.05s9.83,21.99,21.95,22.04l-8.54,12.95h11.96c6.2-9.4,14.28-21.65,15.1-22.9,1.35-2.06,2.37-4.34,2.98-6.79,2.38,9.61,11.07,16.74,21.4,16.74,12.16,0,22.05-9.89,22.05-22.04S77,0,64.85,0"/></g></g></svg>