<svg height="512" width="512" xmlns="http://www.w3.org/2000/svg"><path d="m53.265627 960.50181c0 5.09105 2.11819 10.15073 5.71875 13.75l55.000003 54.99999c3.59815 3.5913 8.63504 5.6875 13.71875 5.6875 5.08369 0 10.15184-2.0962 13.75-5.6875l114.5625-114.56249 114.5625 114.56249c3.66678 3.6642 8.84801 5.7644 14.03125 5.6875 4.9853-.078 9.91076-2.1631 13.4375-5.6875l55-54.99999c3.6006-3.59927 5.6875-8.65895 5.6875-13.75s-2.0869-10.15073-5.6875-13.75l-183.28125-183.28125c-3.59928-3.60056-8.65895-5.6875-13.75-5.6875s-10.15073 2.08694-13.75 5.6875l-183.281253 183.28125c-3.60056 3.59927-5.71875 8.65895-5.71875 13.75zm0-200c0 5.09105 2.11819 10.15073 5.71875 13.75l55.000003 55c3.59815 3.59127 8.63504 5.6875 13.71875 5.6875 5.08369 0 10.15184-2.09623 13.75-5.6875l114.5625-114.5625 114.5625 114.5625c3.66678 3.66423 8.84801 5.76442 14.03125 5.6875 4.9853-.0784 9.91076-2.16308 13.4375-5.6875l55-55c3.6006-3.59927 5.6875-8.65895 5.6875-13.75s-2.0869-10.15073-5.6875-13.75l-183.28125-183.28125c-3.59928-3.60056-8.65895-5.6875-13.75-5.6875s-10.15073 2.08694-13.75 5.6875l-183.281253 183.28125c-3.60056 3.59927-5.71875 8.65895-5.71875 13.75z" fill="#FFE308" transform="translate(0 -540.3622)"/></svg>
