<svg viewBox="0 0 35 35"
     fill="none"
     xmlns="http://www.w3.org/2000/svg">
  <path d="M32.5176 12.2167C30.7834 10.3823 28.4385 9.37219 25.915 9.37219H21.7437C16.7342 9.37219 12.6585 13.4478 12.6585 18.4574V24.6764C12.6585 25.7418 11.7917 26.6086 10.7263 26.6086C9.6608 26.6086 8.794 25.7418 8.794 24.6764V23.7177C8.794 23.4307 8.56131 23.1979 8.2742 23.1979C7.98709 23.1979 7.75439 23.4307 7.75439 23.7177V24.6764C7.75439 26.3151 9.08754 27.6482 10.7263 27.6482C12.365 27.6482 13.6981 26.315 13.6981 24.6764V18.4574C13.6981 14.0211 17.3073 10.4118 21.7437 10.4118H25.915C28.1496 10.4118 30.2262 11.3065 31.7621 12.931C31.9594 13.1397 32.2884 13.1488 32.497 12.9516C32.7056 12.7543 32.7149 12.4253 32.5176 12.2167Z"
        fill="white" />
  <path d="M33.6714 13.7245C33.5216 13.4795 33.2016 13.4025 32.9568 13.5523C32.7118 13.702 32.6347 14.022 32.7845 14.2669C33.5539 15.5253 33.9606 16.9743 33.9606 18.4575V23.5868C33.2811 22.8784 32.3264 22.4361 31.2698 22.4361H20.7117C18.6548 22.4361 16.9813 24.1096 16.9813 26.1665C16.9813 28.756 14.8746 30.8627 12.285 30.8627H10.9885C10.7014 30.8627 10.4687 31.0955 10.4687 31.3825C10.4687 31.6696 10.7014 31.9023 10.9885 31.9023H12.285C15.4479 31.9023 18.0209 29.3292 18.0209 26.1665C18.0209 24.9358 18.8517 23.8961 19.9818 23.5771V25.7293C19.9818 30.0686 16.4515 33.5989 12.1122 33.5989H11.793C9.64555 33.5989 7.70817 32.6831 6.35001 31.2219C7.15679 31.6557 8.07841 31.9024 9.0567 31.9024H9.25569C9.5428 31.9024 9.7755 31.6696 9.7755 31.3826C9.7755 31.0955 9.5428 30.8628 9.25569 30.8628H9.0567C6.46718 30.8628 4.36041 28.7561 4.36041 26.1666V25.2187V23.7179C4.36041 23.4308 4.12771 23.1981 3.84061 23.1981C3.5535 23.1981 3.3208 23.4308 3.3208 23.7179V25.2187V26.1666C3.3208 30.8381 7.12138 34.6386 11.7929 34.6386H26.528C31.1995 34.6386 35 30.838 35 26.1666V18.4575C35.0002 16.7829 34.5407 15.1463 33.6714 13.7245ZM21.0214 25.7294V23.4757H23.6745V25.7294C23.6745 29.8965 20.4186 33.3169 16.3172 33.5818C19.1149 32.0777 21.0214 29.1221 21.0214 25.7294ZM24.7141 25.7294V23.4757H27.3672V25.7294C27.3672 29.8965 24.1113 33.317 20.0099 33.5818C22.8075 32.0777 24.7141 29.1221 24.7141 25.7294ZM23.7027 33.5818C26.5004 32.0776 28.4068 29.1221 28.4068 25.7293V23.4756H31.0599V25.7293C31.0599 29.8966 27.8041 33.3169 23.7027 33.5818ZM27.4739 33.539C30.2287 32.0221 32.0996 29.0902 32.0996 25.7294V23.6072C33.1783 23.9578 33.9606 24.9723 33.9606 26.1665C33.9606 29.9444 31.1273 33.073 27.4739 33.539Z"
        fill="white" />
  <path d="M20.1351 19.7592C20.0163 19.5786 19.7858 19.4905 19.5766 19.5439C19.3658 19.5977 19.208 19.7798 19.1854 19.9968C19.139 20.4421 19.6739 20.7341 20.0248 20.4558C20.2337 20.29 20.2853 19.9814 20.1351 19.7592Z"
        fill="white" />
  <path d="M32.9191 19.8488C32.8254 19.6239 32.5777 19.4888 32.3376 19.5383C32.1294 19.5773 31.9629 19.7515 31.9272 19.959C31.8905 20.1734 31.9948 20.3953 32.1853 20.5012C32.6065 20.7356 33.1049 20.2954 32.9191 19.8488Z"
        fill="white" />
  <path d="M11.6916 17.8588H8.96909C7.76426 17.8588 6.70523 18.4924 6.10572 19.4433C5.50621 18.4924 4.44712 17.8588 3.24229 17.8588H0.519805C0.232695 17.8588 0 18.0915 0 18.3786V19.3094C0 21.1749 1.51771 22.6926 3.38324 22.6926H6.10586H8.82834C10.6939 22.6926 12.2116 21.1749 12.2116 19.3094V18.3786C12.2114 18.0915 11.9788 17.8588 11.6916 17.8588ZM5.58592 21.653H3.38324C2.09104 21.653 1.03961 20.6017 1.03961 19.3094V18.8984H3.24229C4.53455 18.8984 5.58592 19.9497 5.58592 21.242V21.653ZM11.1718 19.3094C11.1718 20.6016 10.1205 21.653 8.8282 21.653H6.6256V21.242C6.6256 19.9498 7.67689 18.8984 8.96916 18.8984H11.1719V19.3094H11.1718Z"
        fill="white" />
  <path d="M20.5692 0.361328C18.9356 0.361328 17.6064 1.69037 17.6064 3.32409C17.6064 3.61113 17.8391 3.8439 18.1263 3.8439C18.4134 3.8439 18.6461 3.61113 18.6461 3.32409C18.6461 2.26363 19.5088 1.40094 20.5692 1.40094C21.6297 1.40094 22.4924 2.2637 22.4924 3.32409V8.15806C22.4924 8.4451 22.7251 8.67786 23.0122 8.67786C23.2993 8.67786 23.532 8.4451 23.532 8.15806V3.32402C23.5319 1.69037 22.2029 0.361328 20.5692 0.361328Z"
        fill="white" />
  <path d="M27.3265 0.361328C25.6929 0.361328 24.3638 1.69044 24.3638 3.32409V8.15806C24.3638 8.44503 24.5965 8.67779 24.8836 8.67779C25.1707 8.67779 25.4034 8.44503 25.4034 8.15799V3.32402C25.4034 2.26356 26.2661 1.40087 27.3265 1.40087C28.387 1.40087 29.2497 2.26363 29.2497 3.32402C29.2497 3.61106 29.4824 3.84383 29.7695 3.84383C30.0566 3.84383 30.2893 3.61106 30.2893 3.32402C30.2893 1.69037 28.9602 0.361328 27.3265 0.361328Z"
        fill="white" />
</svg>
