<svg id="Capa_1"
     viewBox="0 0 512 512"
     fill="#ffffff"
     xmlns="http://www.w3.org/2000/svg">
  <g>
    <path
          d="m154.644 186.194c-47.392 21.368-57.956 67.281-34.379 97.703l.953 1.23c14.141 18.248 38.807 25.864 61.515 18.506 9.178-2.974 21.038-2.973 30.215 0 22.552 7.308 47.657-.624 62.469-19.737 11-14.195 14.704-31.469 10.429-48.642-11.07-44.473-74.974-74.41-131.202-49.06zm62.927 103.171c-12.17-3.944-27.291-3.943-39.462 0-32.355 10.486-61.321-19.953-53.721-50.479 4.027-16.177 17.302-30.399 36.42-39.019 47.648-21.484 101.671 3.609 110.483 39.01 7.942 31.903-23.112 60.406-53.72 50.488z" />
    <path
          d="m159.646 218.695c-21.449 9.002-27.686 41.017-9.335 51.613 18.137 10.47 43-10.492 40.03-33.891-1.971-15.524-16.219-23.797-30.695-17.722zm13.246 30.741c-4.234 7.333-11.346 10.041-15.081 7.883-3.736-2.157-4.948-9.67-.714-17.002 2.075-3.594 5.12-6.434 8.354-7.791 2.154-.904 4.696-1.265 6.727-.091 2.384 1.376 3.081 4.27 3.285 5.872.441 3.478-.496 7.535-2.571 11.129z" />
    <path
          d="m216.004 219.445c-5.836 3.369-9.722 9.555-10.664 16.972-2.937 23.137 21.745 44.446 40.031 33.891 11.517-6.65 14.3-23.468 6.204-37.491-8.534-14.778-24.499-19.764-35.571-13.372zm21.867 37.874c-3.735 2.156-10.848-.55-15.081-7.883-2.075-3.594-3.012-7.651-2.571-11.13.203-1.602.901-4.496 3.285-5.872 2.036-1.176 4.578-.81 6.727.091 3.234 1.357 6.278 4.197 8.354 7.791 4.233 7.333 3.021 14.846-.714 17.003z" />
    <path
          d="m106.601 176.999c-4.142 0-7.499 3.358-7.499 7.499v17.533c0 4.142 3.358 7.499 7.499 7.499s7.499-3.358 7.499-7.499v-17.533c.001-4.142-3.357-7.499-7.499-7.499z" />
    <path
          d="m296.579 202.03v-17.533c0-4.142-3.358-7.499-7.499-7.499-4.142 0-7.499 3.358-7.499 7.499v17.533c0 4.142 3.358 7.499 7.499 7.499 4.141.001 7.499-3.357 7.499-7.499z" />
    <path
          d="m387.496 313.176c-19 13.043-41.36 22.31-66.463 27.543-4.14.863-6.752 4.983-5.76 9.099 10.246 42.508 34.018 76.286 73.277 94.731 2.019.949 4.358.95 6.378 0 15.21-7.145 28.502-16.82 39.508-28.754 2.807-3.045 2.615-7.789-.429-10.597-3.045-2.809-7.79-2.616-10.597.429-8.911 9.663-19.554 17.656-31.671 23.791-31.207-15.798-50.319-42.712-59.932-75.762 22.161-5.422 42.269-13.907 59.932-25.291 17.664 11.384 37.772 19.869 59.932 25.291-2.866 9.855-6.647 19.419-11.695 28.684-1.982 3.637-.64 8.192 2.998 10.173 3.636 1.982 8.192.64 10.173-2.998 6.839-12.551 11.735-25.911 15.059-39.697.991-4.111-1.615-8.235-5.76-9.1-25.102-5.232-47.463-14.499-66.463-27.543-2.556-1.754-5.931-1.754-8.487.001z" />
    <path
          d="m388.804 266.52c-.028-29.505-4.409-56.833-12.897-81.299 24.651-47.492 21.842-93.747 14.993-124.459-4.428-19.849-21.707-33.982-42.022-34.368-72.233-1.363-105.821 29.491-115.543 40.599-22.65-3.452-47.703-3.549-70.989 0-9.725-11.109-43.322-41.965-115.542-40.599-20.314.385-37.594 14.518-42.022 34.368-6.85 30.712-9.658 76.966 14.993 124.457-8.515 24.545-12.9 51.969-12.9 81.583 0 27.557 5.457 50.885 16.217 69.336 2.086 3.578 6.679 4.787 10.256 2.7 3.578-2.086 4.787-6.678 2.7-10.256-9.405-16.127-14.174-36.913-14.174-61.78 0-28.856 4.383-55.421 12.889-78.967.087-.188.183-.37.255-.566 24.736-67.825 82.31-107.9 162.823-107.9 76.531 0 136.816 36.597 162.823 107.899 9.92 27.221 14.032 58.202 13.027 85.986-21.519 18.203-49.919 27.695-78.259 30.93-14.898 1.698-25.582 15.165-23.744 30.037 1.517 12.286 4.194 24.91 7.569 36.199-12.414.539-25.798-.299-39.914-2.507-27.538-4.308-55.464-4.308-83.002 0-55.511 8.683-86.39-5.219-102.521-18.411-3.207-2.622-7.931-2.149-10.553 1.057s-2.148 7.931 1.058 10.553c30.929 25.294 74.752 27.811 114.334 21.619 26-4.067 52.366-4.067 78.365 0 16.745 2.619 32.604 3.428 47.246 2.424 16.642 43.674 46.226 76.965 88.545 96.361 12.028 5.513 25.824 5.513 37.853 0 59.72-27.372 93.196-83.09 101.127-147.295 1.833-14.844-8.817-28.334-23.744-30.037-40.166-4.583-64.962-19.547-78.69-31.293-5.906-5.053-13.352-7.164-20.557-6.371zm-369.383-202.493c2.916-13.074 14.294-22.383 27.668-22.638 34.243-.648 71.871 6.82 97.456 29.098-8.811 2.145-17.316 4.896-24.935 7.916-17.037-8.022-37.686-12.09-61.501-12.09-7.271.002-13.575 5.2-14.99 12.358-3.859 19.534-4.324 40.368-.253 60.622-5.836 8.432-10.982 17.446-15.427 26.989-16.428-39.214-13.738-76.607-8.018-102.255zm36.189 58.981c-1.302-13.777-.447-27.907 2.224-41.431.03-.152.151-.267.34-.267 15.92 0 30.183 1.959 42.608 5.841-17.175 9.295-32.288 21.292-45.172 35.857zm195.527-52.521c25.596-22.29 63.244-29.743 97.456-29.098 13.374.254 24.751 9.563 27.667 22.637 5.72 25.648 8.41 63.04-8.018 102.255-4.445-9.543-9.591-18.557-15.427-26.988 4.059-20.196 3.618-41.033-.254-60.622-1.413-7.159-7.718-12.356-15.054-12.359-23.755 0-44.4 4.068-61.436 12.09-8.211-3.255-16.739-5.92-24.934-7.915zm88.934 52.521c-12.884-14.565-27.997-26.562-45.171-35.857 12.429-3.881 26.705-5.841 42.667-5.841.129 0 .25.114.28.267 2.671 13.508 3.525 27.658 2.224 41.431zm156.838 209.374c-7.35 59.499-37.949 110.5-92.492 135.499-8.056 3.692-17.297 3.692-25.354 0-53.12-24.347-83.407-73.176-91.85-130.815-.768-5.237-1.645-9.074 1.817-13.469 2.002-2.542 4.878-4.144 8.1-4.512 31.361-3.578 62.699-14.228 86.741-34.799 4.402-3.766 11.039-4.02 15.737 0 15.32 13.108 42.805 29.785 86.741 34.799 6.625.756 11.372 6.72 10.56 13.297z" />
  </g>
</svg>
