<svg viewBox="0 0 53 60"
     xmlns="http://www.w3.org/2000/svg">
  <g id="Page-1"
     fill="none"
     fill-rule="evenodd">
    <g id="037---Happy-Chick"
       fill="#ffffff"
       fill-rule="nonzero">
      <path id="Shape"
            d="m4 24c0 10.87-.823 12.484-2.462 15.7l-.433.854c-.917 1.835-.617 4.3.8 6.6 1.383 2.232 5.745 7.256 17.095 7.792v3.054c.0001268.4589705.3126718.8589292.758.97l4 1c.0790796.0201612.1603912.0302411.242.03.5045236-.0010576.9292396-.3777768.9905039-.8785681.0612643-.5007912-.2601138-.9687839-.7495039-1.0914319l-3.241-.811v-2.219c3.3932174.0316761 6.7780081-.34333 10.082-1.117l.989 2.487c.1514925.380382.5195609.629987.929.63h4c.5522847 0 1-.4477153 1-1s-.4477153-1-1-1h-3.321l-.657-1.649c10.395-3.259 15.978-11.271 15.978-23.351 0-.572-.034-1.115-.054-1.67 1.7299288-1.127493 3.0597839-2.7723137 3.8-4.7.3333755-.832299.2970157-1.7671098-.1-2.571-.613-1.112-2.021-2.289-5.158-2-2.8-8.973-9.41-14.23-19.1-14.964.3986188-.62613236.6108809-1.35274839.612-2.095 0-.55228475-.4477153-1-1-1s-1 .44771525-1 1c-.0006276.24313843-.0481631.48387188-.14.709-.4999503-1.05485377-1.300017-1.93875351-2.3-2.541-.4595009-.30651802-1.080482-.18250089-1.387.27700001-.306518.45950091-.1825009 1.08048195.277 1.38699999.2453892.16344129.4792721.34353109.7.539-.6951606-.22615637-1.4192476-.35110347-2.15-.371-.5522847.00000001-1 .44771526-1 1s.4477153.99999999 1 1c.3999977.01782868.7972579.07510651 1.186.171-9.856 1.168-19.186 8.396-19.186 19.829zm46.894-1.978c.1040226.325455.0848044.6777902-.054.99-.4416618 1.1200982-1.1404593 2.1206803-2.04 2.921-.1461309-1.655369-.4084441-3.2984184-.785-4.917 1.104-.06 2.377.095 2.879 1.006zm-24.894-16.022c13.346 0 21 8.748 21 24 0 19.01-14.139 23-26 23-12.181 0-16.391-5.279-17.391-6.9-1.037-1.676-1.309-3.46-.709-4.653l.424-.839c1.776-3.501 2.676-5.258 2.676-16.608 0-11.267 10.169-18 20-18z" />
      <path id="Shape"
            d="m10 32.266c.0819433.0003256.1635963-.009755.243-.03.257441-.0642346.4788001-.2281489.6153407-.4556541.1365407-.2275053.177068-.4999484.1126593-.7573459-.252-1.009-.483-3.383.477-3.862 1.4-.7 2.953 1.143 3.658 2.552.1596977.3197527.4778505.5300187.8346134.5515928.3567628.021574.6979349-.1488214.895-.4470001.1970651-.2981786.2200843-.67884.0603866-.9985927-1.276-2.549-3.8-4.715-6.342-3.447-2.642 1.32-1.646 5.648-1.523 6.137.11136831.4445697.51069345.7565296.969.757z" />
      <path id="Shape"
            d="m22 21c.5522847 0 1-.4477153 1-1s.4477153-1 1-1 1 .4477153 1 1 .4477153 1 1 1 1-.4477153 1-1c0-1.6568542-1.3431458-3-3-3s-3 1.3431458-3 3c0 .5522847.4477153 1 1 1z" />
      <path id="Shape"
            d="m38 20c.5522847 0 1-.4477153 1-1s.4477153-1 1-1 1 .4477153 1 1 .4477153 1 1 1 1-.4477153 1-1c0-1.6568542-1.3431458-3-3-3s-3 1.3431458-3 3c0 .5522847.4477153 1 1 1z" />
      <path id="Shape"
            d="m33 24c.5522847 0 1-.4477153 1-1s-.4477153-1-1-1c-.475 0-.725-.5-.855-1h1.855c.5522847 0 1-.4477153 1-1s-.4477153-1-1-1h-3c-.5522847 0-1 .4477153-1 1 0 1.383.627 4 3 4z" />
      <path id="Shape"
            d="m21 26h1c.5522847 0 1-.4477153 1-1s-.4477153-1-1-1h-1c-.5522847 0-1 .4477153-1 1s.4477153 1 1 1z" />
      <path id="Shape"
            d="m42 23c0 .5522847.4477153 1 1 1h1c.5522847 0 1-.4477153 1-1s-.4477153-1-1-1h-1c-.5522847 0-1 .4477153-1 1z" />
    </g>
  </g>
</svg>
