<svg xmlns="http://www.w3.org/2000/svg" viewBox="0 0 240.61 98.87"><defs><style>.cls-1{fill:#00b4d1;}</style></defs><title>logo-djurens-ratt</title><g id="Layer_2" data-name="Layer 2"><g id="Lager_1" data-name="Lager 1"><path class="cls-1" d="M0,56.2H12.56c8.37,0,16.2,5.13,16.2,15.94S19.54,88.07,11.88,88.07H0ZM9.9,82.94c7.12,0,12.92-3.06,12.92-10.8s-5-10.81-12-10.81H5.67V82.94Z"/><path class="cls-1" d="M36.91,66.47V89.38c0,5.39-1.13,9.49-7.29,9.49a9.38,9.38,0,0,1-2.93-.4l.4-2.42c.77.18,4.42.53,4.42-6.63v-23ZM34.16,55.88a3.25,3.25,0,1,1-3.41,3.25A3.33,3.33,0,0,1,34.16,55.88Z"/><path class="cls-1" d="M60.58,88.07H55.45V84.61h-.09a6.76,6.76,0,0,1-6.62,4c-5.8,0-7.87-4.1-7.87-8.51V66.47h5.4V77.4c0,2.39.18,6.35,4,6.35,3.55,0,5-2.61,5-5.5V66.47h5.4Z"/><path class="cls-1" d="M64.45,66.47h5.4v3.42h.09a6.89,6.89,0,0,1,6.39-4,7,7,0,0,1,1.94.31v5.22a11.06,11.06,0,0,0-2.61-.41,5.44,5.44,0,0,0-5.81,5.46V88.07h-5.4Z"/><path class="cls-1" d="M84,79.16a5.6,5.6,0,0,0,5.81,5.14,7.09,7.09,0,0,0,5.8-2.94l3.88,2.94a11.3,11.3,0,0,1-9.14,4.31c-6.53,0-11.75-4.54-11.75-11.35s5.22-11.33,11.75-11.33c6,0,10.12,4.23,10.12,11.74v1.49Zm11.08-4C95,72,92.93,70,89.55,70c-3.19,0-5.17,2-5.58,5.13Z"/><path class="cls-1" d="M102.49,66.47h5.12v3.47h.1a6.75,6.75,0,0,1,6.61-4c5.81,0,7.88,4.09,7.88,8.5V88.07h-5.4V77.14c0-2.39-.18-6.35-4-6.35-3.56,0-5,2.61-5,5.49V88.07h-5.39Z"/><path class="cls-1" d="M137.58,72.45a4.87,4.87,0,0,0-4.22-2.2c-1.44,0-3.15.67-3.15,2.3,0,3.86,11.65.71,11.65,9.12,0,5.14-4.9,6.94-9.31,6.94-3.33,0-6.22-.86-8.43-3.33l3.61-3.38c1.39,1.54,2.84,2.66,5.13,2.66,1.58,0,3.61-.77,3.61-2.48,0-4.45-11.67-.94-11.67-9.18,0-4.81,4.32-7,8.69-7,2.88,0,5.94.9,7.71,3.28Z"/><path class="cls-1" d="M151.61,56.2h11.07c6.13,0,11.88,2,11.88,9.14,0,4.6-2.65,8-7.37,8.64l8.46,14.09h-6.84l-7.39-13.5h-4.14v13.5h-5.67Zm10.08,13.5c3.2,0,6.93-.26,6.93-4.41,0-3.77-3.5-4.23-6.43-4.23h-4.91V69.7Z"/><path class="cls-1" d="M190.72,85.1h-.14a7.72,7.72,0,0,1-6.92,3.51c-4,0-7.88-2.2-7.88-6.48,0-7,8.19-7.52,13.6-7.52h1.34V74c0-2.67-2.07-4-4.95-4A8.47,8.47,0,0,0,180,72.23l-2.84-2.84a12.64,12.64,0,0,1,9.18-3.46c9.22,0,9.22,6.65,9.22,9.72V88.07h-4.86Zm-9.13-28.9a3.24,3.24,0,1,1-3.42,3.24A3.33,3.33,0,0,1,181.59,56.2Zm8.82,22.2h-1.13c-3,0-8.1.22-8.1,3.32,0,2,2,2.84,3.78,2.84,3.69,0,5.45-1.94,5.45-5Zm.44-22.2a3.24,3.24,0,1,1-3.41,3.24A3.32,3.32,0,0,1,190.85,56.2Z"/><path class="cls-1" d="M196.62,71.05V66.47h4.46V59h5.4v7.52h5.94v4.58h-5.94v9.46c0,2.16.62,3.51,3,3.51a5.6,5.6,0,0,0,2.93-.68v4.54a11.18,11.18,0,0,1-4.28.73c-5.71,0-7.06-2.57-7.06-7.65V71.05Z"/><path class="cls-1" d="M211.88,71.05V66.47h4.46V59h5.39v7.52h5.94v4.58h-5.94v9.46c0,2.16.63,3.51,3,3.51a5.54,5.54,0,0,0,2.92-.68v4.54a11.13,11.13,0,0,1-4.27.73c-5.72,0-7.06-2.57-7.06-7.65V71.05Z"/><path class="cls-1" d="M237,81.41a3.52,3.52,0,0,1,3.6,3.42,3.61,3.61,0,1,1-3.6-3.42Z"/><path class="cls-1" d="M142.34,9.6C139.5,4.81,130.85-3,113.42,3.87,109,5.59,104.71,7.92,100,6.32c-4.14-1.4-11-3.36-15-5-6.2-2.47-13.81-1.36-17.16,2C65.8,5.42,56.13,15.61,70,31.63,80.81,44.23,107,50.5,113.66,50.88a5.3,5.3,0,0,0,.57,0c1.49.08,2.36.05,2.36.05,2.77-.08-9-5.62-9.76-6.82,5.4-.77,34.43-4.44,37.39-25A14.36,14.36,0,0,0,142.34,9.6Z"/></g></g></svg>