<?xml version="1.0" encoding="UTF-8"?><svg id="Lager_2" xmlns="http://www.w3.org/2000/svg" viewBox="0 0 173.5 92.47"><defs><style>.cls-1{fill:#fff;}</style></defs><g id="Lager_1-2"><g><path class="cls-1" d="M25.79,0V6.44h5.83v5.6h-5.88v8.68c0,2.43,1.35,3.08,2.61,3.08,.79,0,2.05-.19,2.8-.56l1.54,5.6c-1.68,.65-3.03,.93-4.85,1.02-4.99,.23-8.77-1.96-8.77-9.15V12.04h-4.11V6.44h4.11V0s6.72,0,6.72,0Z"/><path class="cls-1" d="M42.21,6.35l.52,2.52c1.54-2.15,3.59-3.08,6.16-3.08,2.19,0,4.01,.66,5.64,2.1l-2.8,5.32c-1.12-.79-2.28-1.17-3.69-1.17-2.89,0-5.36,1.87-5.36,5.32v11.99h-6.73V6.35h6.26Z"/><polygon class="cls-1" points="81.27 6.3 66.7 40.65 59.37 40.65 64.56 28.65 54.91 6.3 62.46 6.3 68.2 20.81 73.85 6.3 81.27 6.3"/><path class="cls-1" d="M87.29,17.82c0,3.97,2.7,6.02,6.02,6.02,7.84,0,7.84-12.18,0-12.18-3.31,0-6.02,2.19-6.02,6.16m.75,14.33c.33,2.24,2.94,2.99,5.46,2.99,2.8,0,6.02-1.31,6.02-5.32v-3.23c-1.77,2.71-4.8,3.36-7.04,3.41-6.91,.04-11.9-4.62-11.9-12.18s5.27-12.18,12.09-12.08c2.89,0,5.55,1.35,6.67,3.22l.24-2.61h6.53V29.95c0,7.89-5.97,11.3-12.69,11.3s-11.71-2.99-12.04-9.1h6.67Z"/><path class="cls-1" d="M116.03,17.82c0,3.97,2.7,6.02,6.02,6.02,7.84,0,7.84-12.18,0-12.18-3.31,0-6.02,2.19-6.02,6.16m.75,14.33c.33,2.24,2.94,2.99,5.46,2.99,2.8,0,6.02-1.31,6.02-5.32v-3.23c-1.77,2.71-4.8,3.36-7.04,3.41-6.91,.04-11.9-4.62-11.9-12.18s5.27-12.18,12.09-12.08c2.89,0,5.55,1.35,6.67,3.22l.24-2.61h6.53V29.95c0,7.89-5.97,11.3-12.69,11.3s-11.71-2.99-12.04-9.1h6.67Z"/><path class="cls-1" d="M148.74,0V6.44h5.83v5.6h-5.88v8.68c0,2.43,1.35,3.08,2.61,3.08,.79,0,2.05-.19,2.8-.56l1.54,5.6c-1.68,.65-3.03,.93-4.85,1.02-4.99,.23-8.77-1.96-8.77-9.15V12.04h-4.11V6.44h4.11V0h6.72Z"/><path class="cls-1" d="M6.72,55.54c0,3.96,2.7,6.02,6.02,6.02,7.84,0,7.84-12.18,0-12.18-3.31,0-6.02,2.19-6.02,6.16m.75,14.33c.33,2.24,2.94,2.99,5.46,2.99,2.8,0,6.02-1.31,6.02-5.32v-3.23c-1.77,2.71-4.8,3.36-7.04,3.41-6.91,.04-11.9-4.62-11.9-12.18s5.27-12.18,12.09-12.09c2.89,0,5.55,1.36,6.67,3.23l.24-2.61h6.53v23.61c0,7.88-5.97,11.3-12.69,11.3s-11.71-2.99-12.04-9.1H7.47Z"/><path class="cls-1" d="M29.59,67.07h6.72v-23.1h-6.72v23.1Zm7.18-29.98c0,5.04-7.65,5.04-7.65,0s7.65-5.04,7.65,0"/><polygon class="cls-1" points="51.98 60.07 54.69 52.46 58 44.02 65.56 44.02 55.67 67.2 48.29 67.2 38.4 44.02 45.96 44.02 49.28 52.46 51.98 60.07"/><path class="cls-1" d="M71.06,55.54c0,3.82,2.71,6.06,6.07,6.06,3.78,0,6.11-2.93,6.11-5.83,0-3.31-2.11-6.35-6.11-6.35-3.36,0-6.07,2.28-6.07,6.11m12.42-11.53h6.3v23.05h-6.07l-.37-2.9c-1.54,2.43-4.85,3.36-7.09,3.4-6.91,.05-11.9-4.43-11.9-12.03s5.28-12.13,12.09-12.04c2.9,0,5.6,1.12,6.82,3.17l.23-2.66Z"/><path class="cls-1" d="M111.62,67.07v-12.18c0-3.55-1.54-5.37-4.76-5.37-3.12-.04-5.23,2.66-5.23,5.64v11.9h-6.62v-23.05h6.06l.24,2.94c2.05-2.66,4.67-3.55,7.47-3.5,5.17,0,9.61,2.43,9.61,11.39v12.22h-6.76Z"/><path class="cls-1" d="M127.81,55.54c0,3.31,2.05,5.93,5.64,5.93,3.03,0,6.2-1.55,6.2-5.93,0-3.87-3.12-5.93-6.2-5.93-3.45,0-5.64,2.48-5.64,5.93m18.71-21.09v32.62h-6.02l-.43-2.94c-2.14,2.75-4.76,3.36-7.64,3.36-6.77,0-11.39-4.76-11.39-11.95s4.71-11.99,11.47-11.99c2.7,0,5.27,.84,7.23,3.26v-12.36h6.76Z"/><path class="cls-1" d="M167.24,52.84c-.14-2.52-2.71-3.69-5.51-3.69s-4.76,1.4-5.41,3.69h10.92Zm-10.92,4.9c.33,2.24,2.47,4.06,6.26,4.06,1.81,0,4.34-.43,5.97-1.82l3.78,4.2c-2.47,2.43-6.44,3.41-9.89,3.41-8.35,0-12.92-4.9-12.92-12.27s4.71-11.9,12.22-11.9,12.98,4.9,11.53,14.33h-16.94Z"/><path class="cls-1" d="M32.09,81.29c0,1.89,1.29,2.87,2.87,2.87,3.75,0,3.75-5.82,0-5.82-1.58,0-2.87,1.05-2.87,2.94m.36,6.84c.16,1.07,1.4,1.43,2.61,1.43,1.34,0,2.87-.63,2.87-2.54v-1.54c-.84,1.29-2.29,1.61-3.36,1.63-3.3,.02-5.69-2.21-5.69-5.82s2.52-5.82,5.78-5.77c1.38,0,2.65,.64,3.18,1.54l.11-1.25h3.12v11.28c0,3.76-2.85,5.39-6.06,5.39s-5.59-1.43-5.75-4.35h3.19Z"/><path class="cls-1" d="M43,86.79h3.21v-11.03h-3.21v11.03Zm3.43-13.93c0,2.4-3.66,2.4-3.66,0s3.66-2.4,3.66,0"/><polygon class="cls-1" points="56.35 75.78 54.78 79.81 53.48 83.45 52.19 79.81 50.6 75.78 46.99 75.78 51.72 86.85 55.24 86.85 59.96 75.78 56.35 75.78"/><path class="cls-1" d="M62.71,81.28c0,1.83,1.29,2.9,2.9,2.9,1.81,0,2.92-1.4,2.92-2.78,0-1.58-1-3.03-2.92-3.03-1.61,0-2.9,1.1-2.9,2.92m5.93-5.5h3.01v11.01h-2.9l-.18-1.39c-.73,1.16-2.31,1.61-3.39,1.63-3.29,.02-5.68-2.11-5.68-5.75s2.52-5.79,5.77-5.75c1.38,0,2.67,.54,3.26,1.52l.11-1.27Z"/><path class="cls-1" d="M80.73,78.9c-.82-.58-1.61-.8-2.61-.8-1.05,0-1.58,.37-1.58,.91,0,.6,.55,.93,1.63,.96,2.16,.07,4.76,.52,4.79,3.55,.02,1.78-1.31,3.7-4.81,3.7-1.63,0-3.3-.31-5.17-1.87l1.38-2.28c1.36,1.11,2.68,1.36,3.84,1.38,.93,.02,1.67-.36,1.65-.93,0-.52-.38-.93-1.87-.98-2.05-.09-4.61-.94-4.61-3.52s2.36-3.55,4.75-3.55c1.69,0,3.05,.43,4.21,1.43l-1.58,2.01Z"/><polygon class="cls-1" points="92.05 75.78 90.47 79.81 89.18 83.45 87.89 79.81 86.3 75.78 82.69 75.78 87.42 86.85 90.94 86.85 95.66 75.78 92.05 75.78"/><path class="cls-1" d="M103.77,79.99c-.06-1.21-1.29-1.76-2.63-1.76s-2.27,.66-2.58,1.76h5.21Zm-5.21,2.34c.16,1.07,1.18,1.94,2.99,1.94,.87,0,2.08-.2,2.85-.87l1.81,2.01c-1.18,1.16-3.08,1.63-4.73,1.63-3.99,0-6.17-2.34-6.17-5.86s2.25-5.68,5.84-5.68,6.2,2.34,5.51,6.84h-8.09Z"/><path class="cls-1" d="M110.99,75.8l.25,1.2c.73-1.02,1.72-1.47,2.94-1.47,1.05,0,1.92,.31,2.7,1.01l-1.34,2.54c-.54-.38-1.09-.56-1.76-.56-1.38,0-2.56,.9-2.56,2.54v5.73h-3.21v-10.99h2.99Z"/><path class="cls-1" d="M117.79,86.79h3.21v-11.03h-3.21v11.03Zm3.43-13.93c0,2.4-3.66,2.4-3.66,0s3.66-2.4,3.66,0"/><path class="cls-1" d="M125.52,81.29c0,1.89,1.29,2.87,2.87,2.87,3.75,0,3.75-5.82,0-5.82-1.58,0-2.87,1.05-2.87,2.94m.36,6.84c.16,1.07,1.4,1.43,2.61,1.43,1.34,0,2.87-.63,2.87-2.54v-1.54c-.84,1.29-2.29,1.61-3.36,1.63-3.3,.02-5.69-2.21-5.69-5.82s2.52-5.82,5.78-5.77c1.38,0,2.65,.64,3.18,1.54l.11-1.25h3.12v11.28c0,3.76-2.85,5.39-6.06,5.39s-5.59-1.43-5.75-4.35h3.19Z"/><path class="cls-1" d="M144.17,79.99c-.06-1.21-1.29-1.76-2.63-1.76s-2.27,.66-2.58,1.76h5.21Zm-5.21,2.34c.16,1.07,1.18,1.94,2.99,1.94,.87,0,2.08-.2,2.85-.87l1.81,2.01c-1.18,1.16-3.08,1.63-4.73,1.63-3.99,0-6.17-2.34-6.17-5.86s2.25-5.68,5.84-5.68,6.2,2.34,5.51,6.84h-8.09Z"/></g></g></svg>